HIERARCHY
ROOT Hips
{
 OFFSET 0.000000 0.000000 0.000000
 CHANNELS 6 Xposition Yposition Zposition Yrotation Xrotation Zrotation
 JOINT Chest
 {
  OFFSET 0.000000 9.857222 0.000240
  CHANNELS 3 Yrotation Xrotation Zrotation
  JOINT Chest2
  {
   OFFSET 0.000000 10.876940 -0.000436
   CHANNELS 3 Yrotation Xrotation Zrotation
   JOINT Chest3
   {
    OFFSET 0.000000 9.827798 0.000000
    CHANNELS 3 Yrotation Xrotation Zrotation
    JOINT Chest4
    {
     OFFSET 0.000000 9.827798 0.000000
     CHANNELS 3 Yrotation Xrotation Zrotation
     JOINT Neck
     {
      OFFSET 0.000000 13.831992 0.000000
      CHANNELS 3 Yrotation Xrotation Zrotation
      JOINT Head
      {
       OFFSET 0.000000 9.147643 -0.001036
       CHANNELS 3 Yrotation Xrotation Zrotation
       End Site
       {
        OFFSET 0.000000 17.515799 -0.000541
       }
      }
     }
     JOINT RightCollar
     {
      OFFSET -3.001579 7.717577 0.000000
      CHANNELS 3 Yrotation Xrotation Zrotation
      JOINT RightShoulder
      {
       OFFSET -14.002642 0.000000 0.000000
       CHANNELS 3 Yrotation Xrotation Zrotation
       JOINT RightElbow
       {
        OFFSET -30.053852 0.000000 0.000000
        CHANNELS 3 Yrotation Xrotation Zrotation
        JOINT RightWrist
        {
         OFFSET -24.564923 0.000000 -0.000000
         CHANNELS 3 Yrotation Xrotation Zrotation
         End Site
         {
          OFFSET -18.334355 0.000000 0.000000
         }
        }
       }
      }
     }
     JOINT LeftCollar
     {
      OFFSET 3.001579 7.717577 0.000000
      CHANNELS 3 Yrotation Xrotation Zrotation
      JOINT LeftShoulder
      {
       OFFSET 14.002642 0.000000 0.000000
       CHANNELS 3 Yrotation Xrotation Zrotation
       JOINT LeftElbow
       {
        OFFSET 30.053852 0.000000 0.000000
        CHANNELS 3 Yrotation Xrotation Zrotation
        JOINT LeftWrist
        {
         OFFSET 24.564923 0.000000 -0.000000
         CHANNELS 3 Yrotation Xrotation Zrotation
         End Site
         {
          OFFSET 18.334355 0.000000 0.000000
         }
        }
       }
      }
     }
    }
   }
  }
 }
 JOINT RightHip
 {
  OFFSET -8.003235 -0.001175 -0.000120
  CHANNELS 3 Yrotation Xrotation Zrotation
  JOINT RightKnee
  {
   OFFSET 0.000000 -41.759727 0.000113
   CHANNELS 3 Yrotation Xrotation Zrotation
   JOINT RightAnkle
   {
    OFFSET 0.000000 -40.728748 0.000159
    CHANNELS 3 Yrotation Xrotation Zrotation
    JOINT RightToe
    {
     OFFSET 0.000000 -6.515296 14.732841
     CHANNELS 3 Yrotation Xrotation Zrotation
     End Site
     {
      OFFSET 0.000000 -1.502839 6.412115
     }
    }
   }
  }
 }
 JOINT LeftHip
 {
  OFFSET 8.003235 -0.001175 -0.000120
  CHANNELS 3 Yrotation Xrotation Zrotation
  JOINT LeftKnee
  {
   OFFSET 0.000000 -41.759727 0.000113
   CHANNELS 3 Yrotation Xrotation Zrotation
   JOINT LeftAnkle
   {
    OFFSET 0.000000 -40.728748 0.000159
    CHANNELS 3 Yrotation Xrotation Zrotation
    JOINT LeftToe
    {
     OFFSET 0.000000 -6.515296 14.732841
     CHANNELS 3 Yrotation Xrotation Zrotation
     End Site
     {
      OFFSET 0.000000 -1.502839 6.412115
     }
    }
   }
  }
 }
}
MOTION
Frames: 12
Frame Time: 0.016667
0.000000 88.822259 0.000000 0.000000 -5.826342 0.000000 0.000000 11.116423 0.000000 0.000000 -5.290081 0.000000 0.000000 0.000000 0.000000 0.000000 0.000000 0.000000 0.000000 12.665069 0.000000 0.000000 0.575450 0.000000 0.000000 0.000000 0.000000 0.000000 0.000000 0.000000 2.337306 0.000000 0.000000 -2.337306 0.000000 0.000000 0.000000 0.000000 0.000000 0.000000 0.000000 0.000000 -2.337306 0.000000 0.000000 2.337306 0.000000 0.000000 0.000000 8.578828 0.000000 0.000000 1.905768 0.000000 0.000000 -4.658254 0.000000 0.000000 0.000000 0.000000 0.000000 8.578828 0.000000 0.000000 1.905768 0.000000 0.000000 -4.658254 0.000000 0.000000 0.000000 0.000000
-0.006401 90.696925 17.549362 -31.992656 -15.562297 -1.401001 0.691686 8.549256 0.215930 0.435343 3.761917 0.131496 0.435343 3.761917 0.131496 0.325579 2.821534 0.095904 -6.083591 20.586241 2.782116 -11.879640 2.552187 6.846291 8.555794 3.847540 9.774886 59.619730 -6.738914 81.876559 13.662553 1.099468 3.163731 -3.810743 6.004587 -10.826914 -19.272219 9.600267 -12.170168 -29.260867 9.051105 -58.296303 -30.779115 -16.570765 -1.143477 -1.332946 11.163512 11.603240 -5.253096 25.896407 -4.013048 6.065807 -6.168519 3.717546 -0.107557 -5.256602 0.710213 -0.110345 0.177337 -0.027116 0.199414 13.896569 5.886637 -2.551396 5.393435 -4.888040 1.003015 -2.830075 -0.079670 0.096629 -0.002557 0.066515
0.001886 90.699994 17.544087 -31.950321 -15.645632 -1.408657 0.669701 8.580496 0.226728 0.424197 3.774091 0.136263 0.424197 3.774091 0.136263 0.317190 2.830664 0.099537 -6.084526 20.591617 2.768690 -11.876984 2.560584 6.821685 8.620107 3.898709 9.818080 59.253525 -6.729696 81.680709 13.877880 0.887975 3.274410 -3.806120 5.995689 -10.608191 -19.343019 9.684989 -12.232681 -29.543480 9.111165 -58.253879 -30.915551 -17.166360 -0.888770 -1.383108 11.161952 11.470119 -5.242854 25.964270 -4.013499 6.035813 -6.140497 3.726860 -0.094942 -5.255454 0.718198 -0.130421 0.162049 -0.040012 0.167914 13.950372 5.897855 -2.530193 5.436259 -4.905936 0.950009 -2.833351 -0.082727 0.122500 -0.014873 0.072459
0.008268 90.700509 17.532453 -31.890578 -15.666069 -1.412058 0.617460 8.588369 0.227234 0.412709 3.773109 0.141223 0.412709 3.773109 0.141223 0.308547 2.829929 0.103328 -6.083869 20.589359 2.753271 -11.871500 2.554451 6.793795 8.715441 3.935233 9.883972 58.965159 -6.639782 81.484749 14.227733 0.502029 3.260230 -3.601690 6.022716 -10.344633 -19.436358 9.757193 -12.312567 -29.780398 9.192892 -58.209984 -31.169671 -18.085378 -0.386496 -1.392429 11.150666 11.221426 -5.245579 25.964206 -4.020545 6.004734 -6.112865 3.741873 -0.052645 -5.262721 0.741973 -0.185921 0.159656 -0.070253 0.078615 13.938921 5.916795 -2.488259 5.483353 -4.950740 0.855626 -2.839621 -0.100895 0.192067 -0.022759 0.097047
0.022157 90.697532 17.520579 -31.883662 -15.623876 -1.395929 0.604205 8.574975 0.218647 0.402106 3.762776 0.143803 0.402106 3.762776 0.143803 0.300584 2.822178 0.105335 -6.079579 20.570709 2.747256 -11.863522 2.518757 6.783583 8.849897 3.938610 9.983402 58.926406 -6.397671 81.324151 14.765961 -0.102788 2.997763 -3.187289 6.167896 -10.160606 -19.534803 9.838890 -12.398900 -29.904753 9.291379 -58.103082 -31.627111 -19.433039 0.307077 -1.321934 10.941463 10.890748 -5.220790 25.893462 -4.059036 5.997114 -6.086019 3.779421 0.007690 -5.276895 0.774067 -0.257997 0.167561 -0.109387 0.063227 13.867963 5.904784 -2.485757 5.517807 -4.959912 0.822000 -2.847794 -0.106521 0.221444 -0.021466 0.103509
0.035752 90.693586 17.507453 -31.921497 -15.544675 -1.392767 0.643663 8.561557 0.232475 0.392304 3.754774 0.140643 0.392304 3.754774 0.140643 0.293257 2.816173 0.103031 -6.071702 20.527829 2.761664 -11.857010 2.440364 6.811832 9.035457 3.903680 10.126391 58.756332 -6.076353 81.043389 15.531336 -0.576076 2.621999 -2.693476 6.375721 -9.937976 -19.616534 9.841695 -12.444035 -29.779543 9.375125 -58.001083 -32.359685 -21.504338 1.164230 -1.164258 10.944900 10.558736 -5.115323 25.792966 -4.033591 5.968834 -6.064364 3.797379 -0.005378 -5.278150 0.779909 -0.254641 0.167408 -0.116025 0.151904 13.764139 5.901352 -2.536346 5.538722 -4.927918 0.857318 -2.865343 -0.098945 0.193840 -0.005171 0.084717
0.039728 90.693141 17.496873 -31.917206 -15.508929 -1.393342 0.629613 8.599013 0.247151 0.384351 3.763207 0.139763 0.384351 3.763207 0.139763 0.287298 2.822494 0.102415 -6.061359 20.454133 2.784008 -11.850957 2.305687 6.856935 9.210874 3.872098 10.237694 58.107786 -5.884349 80.561577 16.543719 -0.681819 2.293746 -2.437349 6.454378 -9.754891 -19.656009 9.800928 -12.472454 -29.597000 9.366335 -57.989342 -33.386860 -24.111822 2.447913 -0.968526 11.156418 10.309021 -5.061634 25.756888 -3.986683 5.931659 -6.063893 3.779612 -0.043480 -5.277752 0.775368 -0.217343 0.171326 -0.108256 0.179728 13.721611 5.901780 -2.549480 5.533539 -4.915341 0.852509 -2.860793 -0.092601 0.187682 0.002059 0.075536
0.026522 90.696522 17.487603 -31.905229 -15.488667 -1.394907 0.618054 8.661044 0.271433 0.368678 3.785419 0.140488 0.368678 3.785419 0.140488 0.275537 2.839150 0.103042 -6.046932 20.357064 2.812470 -11.841329 2.128096 6.914390 9.342455 3.791746 10.288263 57.142129 -5.843432 80.010856 17.837469 -0.721253 1.903302 -2.474159 6.310018 -9.788623 -19.631312 9.721898 -12.448241 -29.355851 9.248391 -58.047466 -34.780776 -26.455473 4.124989 -0.786863 11.430675 10.296283 -5.092194 25.749841 -3.973448 5.914567 -6.086513 3.771633 -0.040718 -5.248513 0.771199 -0.187924 0.154921 -0.106297 0.227851 13.707183 5.910789 -2.539644 5.517469 -4.885598 0.816247 -2.848751 -0.101585 0.188601 0.002961 0.067723
-0.004897 90.699854 17.473810 -31.845277 -15.459004 -1.412072 0.588801 8.718649 0.306778 0.341813 3.811538 0.141956 0.341813 3.811538 0.141956 0.255378 2.858734 0.104293 -6.027889 20.264344 2.842706 -11.823554 1.958258 6.973305 9.436426 3.668881 10.283066 55.999665 -5.746715 79.208006 19.535041 -0.852804 1.709758 -2.645199 6.013214 -10.126967 -19.533067 9.592435 -12.347653 -28.921097 9.015287 -58.093376 -36.508066 -27.863162 5.972330 -0.566342 11.884895 10.390932 -5.268478 25.751106 -3.966044 5.936099 -6.131570 3.737669 -0.040018 -5.202417 0.756490 -0.126487 0.129736 -0.090567 0.328192 13.690577 5.975739 -2.646604 5.464476 -4.895836 0.805527 -2.821210 -0.093990 0.177714 0.007210 0.054338
-0.032540 90.702908 17.472942 -31.830464 -15.438952 -1.400077 0.599996 8.760493 0.324437 0.313592 3.841234 0.145522 0.313592 3.841234 0.145522 0.234190 2.881001 0.107127 -6.007188 20.196022 2.866070 -11.798712 1.832505 7.016753 9.497883 3.528062 10.232836 54.998521 -5.469327 78.270689 21.463357 -0.661249 1.714183 -2.764208 5.946924 -10.695448 -19.422363 9.444980 -12.225012 -28.350708 8.788799 -58.047055 -38.445522 -27.855867 7.621348 -0.232298 11.787769 10.670341 -5.480221 25.768723 -4.039024 6.024614 -6.202624 3.727444 -0.043282 -5.136951 0.756585 -0.083396 0.094155 -0.083192 0.525830 13.709309 5.971101 -2.806617 5.373103 -4.821492 0.890094 -2.785829 -0.079909 0.105079 0.013316 0.014325
-0.059515 90.706068 17.475988 -31.830914 -15.373333 -1.400256 0.619484 8.765690 0.345590 0.293844 3.862425 0.148682 0.293844 3.862425 0.148682 0.219358 2.896891 0.109610 -5.985989 20.156350 2.892607 -11.771462 1.760058 7.062841 9.532117 3.462793 10.172118 54.361433 -5.219678 77.439765 23.440372 0.367118 1.578185 -2.900162 5.888352 -11.169484 -19.315636 9.354456 -12.091301 -27.717357 8.513346 -57.895390 -40.599053 -27.326250 9.078831 0.156312 11.597696 11.021056 -5.657436 25.746191 -4.059654 6.122439 -6.282697 3.683158 -0.085167 -5.060038 0.760593 -0.019931 0.055307 -0.067577 0.721604 13.693240 5.962194 -2.922892 5.273698 -4.715684 0.924111 -2.744247 -0.076252 0.032066 0.015571 -0.024746
-0.079757 90.708351 17.482409 -31.816088 -15.270501 -1.392286 0.626085 8.754566 0.349328 0.279217 3.865163 0.150297 0.279217 3.865163 0.150297 0.208382 2.898942 0.110912 -5.969489 20.142808 2.920849 -11.751010 1.736659 7.110679 9.543771 3.479612 10.114890 53.646187 -5.144618 76.530202 25.518239 1.910568 1.595385 -3.034881 5.940949 -11.381225 -19.228164 9.330789 -11.970601 -27.084123 8.185358 -57.623442 -43.038315 -26.684008 10.532079 0.518940 11.366136 11.180575 -5.861100 25.668007 -4.130503 6.230968 -6.351669 3.683251 -0.078241 -5.001183 0.778136 -0.004771 0.036078 -0.072667 0.972184 13.633530 5.944798 -3.058780 5.178053 -4.588050 0.907016 -2.712066 -0.096312 0.001107 0.028316 -0.043760
